/* XPM */
static char *result[] = {
/* columns rows colors chars-per-pixel */
"32 32 6 1 ",
"  c black",
". c gray26",
"X c #F44336",
"o c #FFEB3B",
"O c #03A9F4",
"+ c None",
/* pixels */
"++++++++++++++++++++++++++++++++",
"++++++++++++++++++++++++++++++++",
"++++++++++++++++++++++++++++++++",
"++++++++++++++++++++++++++++++++",
"++++++++++++++++++++++++++++++++",
"++++++++++++++++++++++++++++++++",
"++++++++++++++++++++++++++++++++",
"++++++++++++++++++++++++++++++++",
"+++++++++++++       ++++++++++++",
"+++++++++++  ooooooo  ++++++++++",
"+++++++++  ooooooooooo  ++++++++",
"++++++++ ooooooooooooooO +++++++",
"+++++++ ooooooooooooooooO ++++++",
"+++++++ oooooXooooooooooO ++++++",
"++++++ oooooXXXoooooooooOO +++++",
"++++++ ooooXXXXXooooooooOO +++++",
"+++++ ooXXXXXXXXXXXoooooOOO ++++",
"+++++ ooXXXXXXXXXXXoooooOOO ++++",
"+++++ oooXXXXXXXXXoooooOOOO ++++",
"+++++ ooooXXXXXXXooooooOOOO ++++",
"+++++ ooooXXXXXXXoooooOOOOO ++++",
"+++++ oooXXXXXXXXXooooOOOOO ++++",
"+++++ oooXXXoooXXXoooOOOOOO ++++",
"++++++ oooXoooooXoooOOOOOO +++++",
"++++++ ooooooooooooOOOOOOO +++++",
"+++++++ ooooooooooOOOOOOO ++++++",
"+++++++ ooooooooOOOOOOOOO ++++++",
"++++++++ OOooooOOOOOOOOO +++++++",
"+++++++++  OOOOOOOOOOO  ++++++++",
"++++++++...  OOOOOOO  ..++++++++",
"++++++++.....       ....++++++++",
"+++++++++..............+++++++++"
};
