/* XPM */
static char *result[] = {
/* columns rows colors chars-per-pixel */
"32 32 5 1 ",
"  c black",
". c #F44336",
"X c #FFEB3B",
"o c #03A9F4",
"O c None",
/* pixels */
"OOOOOOOOOOOOOOOOOOOOOOOOOOOOOOOO",
"OOOOOOOOOOOOOOOOOOOOOOOOOOOOOOOO",
"OOOOOOOOOOOOOOOOOOOOOOOOOOOOOOOO",
"OOOOOOOOOOOOOOOOOOOOOOOOOOOOOOOO",
"OOOOOOOOOOOOOOOOOOOOOOOOOOOOOOOO",
"OOOOOOOOOOOO       OOOOOOOOOOOOO",
"OOOOOOOOOO  XXXXXXX  OOOOOOOOOOO",
"OOOOOOOO  XXXXXXXXXXX  OOOOOOOOO",
"OOOOOOO oXXXXXXXXXXXXXX OOOOOOOO",
"OOOOOO oXXXXXXXXXXXXXXXX OOOOOOO",
"OOOOOO oXXXXXXXXXX.XXXXX OOOOOOO",
"OOOOO ooXXXXXXXXX...XXXXX OOOOOO",
"OOOOO ooXXXXXXXX.....XXXX OOOOOO",
"OOOO oooXXXXX...........XX OOOOO",
"OOOO oooXXXXX...........XX OOOOO",
"OOOO ooooXXXXX.........XXX OOOOO",
"OOOO ooooXXXXXX.......XXXX OOOOO",
"OOOO oooooXXXXX.......XXXX OOOOO",
"OOOO oooooXXXX.........XXX OOOOO",
"OOOO ooooooXXX...XXX...XXX OOOOO",
"OOOOO ooooooXXX.XXXXX.XXX OOOOOO",
"OOOOO oooooooXXXXXXXXXXXX OOOOOO",
"OOOOOO oooooooXXXXXXXXXX OOOOOOO",
"OOOOOO oooooooooXXXXXXXX OOOOOOO",
"OOOOOOO oooooooooXXXXoo OOOOOOOO",
"OOOOOOOO  ooooooooooo  OOOOOOOOO",
"OOOOOOOOOO  ooooooo  OOOOOOOOOOO",
"OOOOOOOOOOOO       OOOOOOOOOOOOO",
"OOOOOOOOOOOOOOOOOOOOOOOOOOOOOOOO",
"OOOOOOOOOOOOOOOOOOOOOOOOOOOOOOOO",
"OOOOOOOOOOOOOOOOOOOOOOOOOOOOOOOO",
"OOOOOOOOOOOOOOOOOOOOOOOOOOOOOOOO"
};
