/* XPM */
static char *result[] = {
/* columns rows colors chars-per-pixel */
"32 32 5 1 ",
"  c black",
". c #FF1744",
"X c #FFC107",
"o c #2196F3",
"O c None",
/* pixels */
"OOOOOOOOOOOOOOOOOOOOOOOOOOOOOOOO",
"OOOOOOOOOOO         OOOOOOOOOOOO",
"OOOOOOOO    XXXXXXX    OOOOOOOOO",
"OOOOOO   oXXXXXXXXXXXX   OOOOOOO",
"OOOOO  ooXXXXXXXXXXXXXXX  OOOOOO",
"OOOO  ooXXXXXXXXXXX..XXXX  OOOOO",
"OOO  ooXXXXXXXXXXX....XXXX  OOOO",
"OO  ooXXXXXXXXXXXX....XXXXX  OOO",
"OO ooXXXXXXXXXXXX......XXXXX OOO",
"O  ooXXXXXXXXXXXX......XXXXX  OO",
"O oooXXXXXXX................X OO",
"O oooXXXXXXX................X OO",
"  oooXXXXXXXX..............XX  O",
" ooooXXXXXXXXX............XXXX O",
" ooooXXXXXXXXXX..........XXXXX O",
" oooooXXXXXXXXX..........XXXXX O",
" oooooXXXXXXXX............XXXX O",
" ooooooXXXXXXX............XXXX O",
" ooooooXXXXXX..............XXX O",
" oooooooXXXXX......XX......XXX O",
"  ooooooXXXX.....XXXXXX.....X  O",
"O oooooooXXX...XXXXXXXXXX...X OO",
"O ooooooooXXXXXXXXXXXXXXXXXXX OO",
"O  oooooooooXXXXXXXXXXXXXXXX  OO",
"OO oooooooooooXXXXXXXXXXXXXX OOO",
"OO  ooooooooooooXXXXXXXXXXo  OOO",
"OOO  oooooooooooooXXXXXXXo  OOOO",
"OOOO  oooooooooooooooooooo OOOOO",
"OOOOO  ooooooooooooooooo  OOOOOO",
"OOOOOO   ooooooooooooo   OOOOOOO",
"OOOOOOOO    ooooooo    OOOOOOOOO",
"OOOOOOOOOOO         OOOOOOOOOOOO"
};
