/* XPM */
static char *result[] = {
/* columns rows colors chars-per-pixel */
"32 32 5 1 ",
"  c black",
". c #FF1744",
"X c #FFC107",
"o c #2196F3",
"O c None",
/* pixels */
"OOOOOOOOOOOOOOOOOOOOOOOOOOOOOOOO",
"OOOOOOOOOOOO         OOOOOOOOOOO",
"OOOOOOOOO    XXXXXXX    OOOOOOOO",
"OOOOOOO   XXXXXXXXXXXXo   OOOOOO",
"OOOOOO  XXXXXXXXXXXXXXXoo  OOOOO",
"OOOOO  XXXX..XXXXXXXXXXXoo  OOOO",
"OOOO  XXXX....XXXXXXXXXXXoo  OOO",
"OOO  XXXXX....XXXXXXXXXXXXoo  OO",
"OOO XXXXX......XXXXXXXXXXXXoo OO",
"OO  XXXXX......XXXXXXXXXXXXoo  O",
"OO X................XXXXXXXooo O",
"OO X................XXXXXXXooo O",
"O  XX..............XXXXXXXXooo  ",
"O XXXX............XXXXXXXXXoooo ",
"O XXXXX..........XXXXXXXXXXoooo ",
"O XXXXX..........XXXXXXXXXooooo ",
"O XXXX............XXXXXXXXooooo ",
"O XXXX............XXXXXXXoooooo ",
"O XXX..............XXXXXXoooooo ",
"O XXX......XX......XXXXXooooooo ",
"O  X.....XXXXXX.....XXXXoooooo  ",
"OO X...XXXXXXXXXX...XXXooooooo O",
"OO XXXXXXXXXXXXXXXXXXXoooooooo O",
"OO  XXXXXXXXXXXXXXXXooooooooo  O",
"OOO XXXXXXXXXXXXXXooooooooooo OO",
"OOO  oXXXXXXXXXXoooooooooooo  OO",
"OOOO  oXXXXXXXooooooooooooo  OOO",
"OOOOO oooooooooooooooooooo  OOOO",
"OOOOOO  ooooooooooooooooo  OOOOO",
"OOOOOOO   ooooooooooooo   OOOOOO",
"OOOOOOOOO    ooooooo    OOOOOOOO",
"OOOOOOOOOOOO         OOOOOOOOOOO"
};
