/* XPM */
static char *result[] = {
/* columns rows colors chars-per-pixel */
"32 32 3 1 ",
"  c black",
". c #795548",
"X c None",
/* pixels */
"XXXXXXXXXXXXXXXXXXXXXXXXXXXXXXXX",
"X....................XXXXXXXXXXX",
"......................XXXXXXXXXX",
"......................XXXXXXXXXX",
"......................XXXXXXXXXX",
"......................XXXXXXXXXX",
"......................XXXXXXXXXX",
"......................XXXXXXXXXX",
"......................XXXXXXXXXX",
"......................XXXXXXXXXX",
"......................XXXXXXXXXX",
"......................XXXXXXXXXX",
"......................XXXXXXXXXX",
"......................XXXXXXXXXX",
"......................XXXXXXXXXX",
".................  ...XXXXXXXXXX",
".................  ...XXXXXXXXXX",
"......................XXXXXXXXXX",
"......................XXXXXXXXXX",
"......................XXXXXXXXXX",
"......................XXXXXXXXXX",
"......................XXXXXXXXXX",
"......................XXXXXXXXXX",
"......................XXXXXXXXXX",
"......................XXXXXXXXXX",
"......................XXXXXXXXXX",
"......................XXXXXXXXXX",
"......................XXXXXXXXXX",
"......................XXXXXXXXXX",
"......................XXXXXXXXXX",
"X....................XXXXXXXXXXX",
"XXXXXXXXXXXXXXXXXXXXXXXXXXXXXXXX"
};
