/* XPM */
static char *result[] = {
/* columns rows colors chars-per-pixel */
"32 32 11 1 ",
"  c #FF5722",
". c #FF1744",
"X c #64DD17",
"o c #FFEB3B",
"O c #311B92",
"+ c #304FFE",
"@ c #9C27B0",
"# c #03A9F4",
"$ c #EA80FC",
"% c white",
"& c None",
/* pixels */
"&&&&&&&&&&&&&&&&&&&&&&&&&&&&&&&&",
"&&&&&&&&&&&&&&&&&&&&&&&&&&&&&&&&",
"&&%%%%%%%%%%%%%%%%%%%%%%%%%%%%&&",
"&&%..... ### o###o###oX###X##%&&",
"&&%.#### ### oo##oo##oX###X##%&&",
"&&%.#### ### o#o#o#o#oXX#XX##%&&",
"&&%..... ### o#o#o#o#o#XXX###%&&",
"&&%####. ### o#o#o#o#o##X####%&&",
"&&%####. ### o##oo##oo##X####%&&",
"&&%.....     o###o###o##X####%&&",
"&&%##########################%&&",
"&&%######+++++OOOOO@@@##$$$$$%&&",
"&&%######+######O##@##@#$####%&&",
"&&%######+######O##@###@$####%&&",
"&&%######+++++##O##@###@$$$$$%&&",
"&&%##########+##O##@###@$####%&&",
"&&%##########+##O##@##@#$####%&&",
"&&%######+++++OOOOO@@@##$$$$$%&&",
"&&%##########################%&&",
"&&%##########################%&&",
"&&%########o#######o#########%&&",
"&&%#########o#####o##########%&&",
"&&%##########o####o####o#####%&&",
"&&%##########o###o####o######%&&",
"&&%#####o############o#######%&&",
"&&%######o###oooooo#####o####%&&",
"&&%###o#####oooooooo###o#####%&&",
"&&%####o###oooooooooo########%&&",
"&&%#####o#oooooooooooo#ooo###%&&",
"&&%%%%%%%%%%%%%%%%%%%%%%%%%%%%&&",
"&&&&&&&&&&&&&&&&&&&&&&&&&&&&&&&&",
"&&&&&&&&&&&&&&&&&&&&&&&&&&&&&&&&"
};
