/* XPM */
static char *result[] = {
/* columns rows colors chars-per-pixel */
"32 32 11 1 ",
"  c #1A237E",
". c #FF5722",
"X c #FF1744",
"o c #76FF03",
"O c #FFEB3B",
"+ c #304FFE",
"@ c #9C27B0",
"# c #03A9F4",
"$ c #EA80FC",
"% c white",
"& c None",
/* pixels */
"&&&&&&&&&&&&&&&&&&&&&&&&&&&&&&&&",
"&%%%%%&%%%%%%%&%%%%%%%%%%%%%%%%&",
"&%XXXXXX.####.O####O####Oo###o%&",
"&%X#####.####.OO###OO###Oo###o%&",
"&%X#####.####.OO###OO###Oo###o%&",
"&%X#####.####.O#O##O#O##Oo###o%&",
"&%XXXXXX.####.O#OO#O#OO#O#o#o#%&",
"&%#####X.####.O##O#O##O#O##o##%&",
"&%#####X.####.O###OO###OO##o##%&",
"&%#####X.####.O###OO###OO##o##%&",
"&%XXXXXX......O####O####O##o##%&",
"&%######+++++     @@@@##$$$$$$%&",
"&%######+###### ##@###@#$#####%&",
"&%######+###### ##@####@$#####%&",
"&%######+###### ##@####@$#####%&",
"&%######+++++## ##@####@$$$$$$%&",
"&%##########+## ##@####@$#####%&",
"&%##########+## ##@####@$#####%&",
"&%##########+## ##@###@#$#####%&",
"&%######+++++     @@@@##$$$$$$%&",
"&%#########O#######O##########%&",
"&%##########O#####O###########%&",
"&%###########O####O####O######%&",
"&%###########O###O####O#######%&",
"&%######O############O########%&",
"&%#######O###OOOOOO#####O#####%&",
"&%####O#####OOOOOOOO###O######%&",
"&%#####O###OOOOOOOOOO#########%&",
"&%######O#OOOOOOOOOOOO#OOO####%&",
"&%############################%&",
"&%%%%%%%%%%%%%%%%%%%%%%%%%%%%&%&",
"&&&&&&&&&&&&&&&&&&&&&&&&&&&&&&&&"
};
