/* XPM */
static char *result[] = {
/* columns rows colors chars-per-pixel */
"32 32 9 1 ",
"  c #FF1744",
". c #FF9800",
"X c #FFEB3B",
"o c #3F51B5",
"O c #9C27B0",
"+ c #009688",
"@ c #03A9F4",
"# c white",
"$ c None",
/* pixels */
"$$$$$$$$$$$$$$$$$$$$$$$$$$$$$$$$",
"$##############################$",
"$#XXX@X@X@X@@X@X@@X@X@X@@@@@@@#$",
"$#X@@@X@X@XX@X@XX@X@X@X@@@@@@@#$",
"$#XXX@X@X@XXXX@XXXX@@X@@@@@@@@#$",
"$#@@X@X@X@X@XX@X@XX@@X@@@@@@@@#$",
"$#XXX@XXX@X@@X@X@@X@@X@@@@@@@@#$",
"$#@@@@@@@@@@@@@XXX@XXX@XX@@XXX#$",
"$#@@@@@@@@@@@@@X@@@@X@@X@X@X@@#$",
"$#@@@@@@@@@@@@@XXX@@X@@X@X@XXX#$",
"$#@@@@@@@@@@@@@@@X@@X@@X@X@X@@#$",
"$#@@@@@@@      XXX XXX XX@@XXX#$",
"$#@@@@@                  @@@@@#$",
"$#@@@@  ................  @@@@#$",
"$#@@@  ..XXXXXXXXXXXXXX..  @@@#$",
"$#@@  ..XX++++++++++++XX..  @@#$",
"$#@  ..XX++oooooooooo++XX..  @#$",
"$#  ..XX++oooooooooooo++XX..  #$",
"$# ..XX++ooOOOOOOOOOOoo++XX.. #$",
"$#..XX++ooOOOOOOOOOOOOoo++XX..#$",
"$#.XX++ooOOO@@@@@@@@OOOoo++XX.#$",
"$#XX++ooOO@@@@@@@@@@@@OOoo++XX#$",
"$#X++ooOO@@@@@@@@@@X@@@OOoo++X#$",
"$#++ooOO@@@@@X@@@@X@@@@@OOoo++#$",
"$#+##OO@@X@@@@X@@@X@@@@@@OOo###$",
"$####O@@@@X@@@X@@X@@@X@@@@O####$",
"$#####@@@@@X@@@@@@@@X@@X@@#####$",
"$######@@X@@@@XXXX@@@@X@@@#####$",
"$######@@@X@@XXXXXX@@X@@@######$",
"$######X@@@@XXXXXXXX@@@@X######$",
"$#######XX@XXXXXXXXXX@XX#######$",
"$$$$$$$$$$$$$$$$$$$$$$$$$$$$$$$$"
};
