/* XPM */
static char *result[] = {
/* columns rows colors chars-per-pixel */
"32 32 3 1 ",
"  c #795548",
". c #FF9800",
"X c #FFC107",
/* pixels */
"....... ........................",
"....... ........................",
"....... ........................",
"....... ........................",
"....... ........................",
"....... ........................",
"....... ........................",
"....... ........................",
"....... ........................",
"....... ........................",
"....... ........................",
"....... ........................",
"....... ........................",
"....... ........................",
"....... ........................",
"....... ........................",
"XXXXXXXXXXXXXXXXXXXXXXXX XXXXXXX",
"XXXXXXXXXXXXXXXXXXXXXXXX XXXXXXX",
"XXXXXXXXXXXXXXXXXXXXXXXX XXXXXXX",
"XXXXXXXXXXXXXXXXXXXXXXXX XXXXXXX",
"XXXXXXXXXXXXXXXXXXXXXXXX XXXXXXX",
"XXXXXXXXXXXXXXXXXXXXXXXX XXXXXXX",
"XXXXXXXXXXXXXXXXXXXXXXXX XXXXXXX",
"XXXXXXXXXXXXXXXXXXXXXXXX XXXXXXX",
"XXXXXXXXXXXXXXXXXXXXXXXX XXXXXXX",
"XXXXXXXXXXXXXXXXXXXXXXXX XXXXXXX",
"XXXXXXXXXXXXXXXXXXXXXXXX XXXXXXX",
"XXXXXXXXXXXXXXXXXXXXXXXX XXXXXXX",
"XXXXXXXXXXXXXXXXXXXXXXXX XXXXXXX",
"XXXXXXXXXXXXXXXXXXXXXXXX XXXXXXX",
"XXXXXXXXXXXXXXXXXXXXXXXX XXXXXXX",
"XXXXXXXXXXXXXXXXXXXXXXXX XXXXXXX"
};
