/* XPM */
static char *result[] = {
/* columns rows colors chars-per-pixel */
"32 32 4 1 ",
"  c #795548",
". c #FF9800",
"X c #FFC107",
"o c #FFEB3B",
/* pixels */
"XXXXXXXXX XXXXXXXXXXXXXXXXXXXXXX",
"XXXXXXXXX XXXXXXXXXXXXXXXXXXXXXX",
"XXXXXXXXX XXXXXXXXXXXXXXXXXXXXXX",
"XXXXXXXXX XXXXXXXXXXXXXXXXXXXXXX",
"XXXXXXXXX XXXXXXXXXXXXXXXXXXXXXX",
"XXXXXXXXX XXXXXXXXXXXXXXXXXXXXXX",
"XXXXXXXXX XXXXXXXXXXXXXXXXXXXXXX",
"XXXXXXXXX XXXXXXXXXXXXXXXXXXXXXX",
"........................... ....",
"........................... ....",
"........................... ....",
"........................... ....",
"........................... ....",
"........................... ....",
"........................... ....",
"........................... ....",
"ooooooooooooooo oooooooooooooooo",
"ooooooooooooooo oooooooooooooooo",
"ooooooooooooooo oooooooooooooooo",
"ooooooooooooooo oooooooooooooooo",
"ooooooooooooooo oooooooooooooooo",
"ooooooooooooooo oooooooooooooooo",
"ooooooooooooooo oooooooooooooooo",
"ooooooooooooooo oooooooooooooooo",
"..... ..........................",
"..... ..........................",
"..... ..........................",
"..... ..........................",
"..... ..........................",
"..... ..........................",
"..... ..........................",
"..... .........................."
};
