/* XPM */
static char *result[] = {
/* columns rows colors chars-per-pixel */
"32 32 5 1 ",
"  c black",
". c #E91E63",
"X c #6A1B9A",
"o c #FFCDD2",
"O c None",
/* pixels */
"OOOOOOOOOOOOOOOOOOOOOOOOOOOOOOOO",
"OOOOOOOOOOOOOOOOOOOOOOOOOOOOOOOO",
"OOOOOOOOOOOOOOOOOOOOOOOOOOOOOOOO",
"OOOOOOOOOOOOOOOOOOOOOOOOOOOOOOOO",
"OOOOOO     OOOOOOOOOOO     OOOOO",
"OOOOO  ...  OOOOOOOOO  ...  OOOO",
"OOOOO .ooo.           .ooo. OOOO",
"OOOOO .ooXX...........XXoo. OOOO",
"OOOOO .oXXXXX.......XXXXXo. OOOO",
"OOOOO  ...XXXXX...XXXXX...  OOOO",
"OOOOOO .....XXXX.XXXX..... OOOOO",
"OOOOOO ....   XX.XX   .... OOOOO",
"OOOOO  ....   .....   ....  OOOO",
"OOOOO .....   .....   ..... OOOO",
"OOOOO ..................... OOOO",
"OOOOO ......ooooooooo...... OOOO",
"OOOOO .....ooXXXXXXXoo..... OOOO",
"OOOOO ....oooXXXXXXXooo.... OOOO",
"OOOOO ....oooXXXXXXXooo.... OOOO",
"OOOOO ....ooooXXXXXoooo.... OOOO",
"OOOOO  ...ooooooooooooo...  OOOO",
"OOOOOO ...oooo     oooo... OOOOO",
"OOOOOO  ...oo  ooo  oo...  OOOOO",
"OOOOOOO  ...o ooooo o...  OOOOOO",
"OOOOOOOO   ...........   OOOOOOO",
"OOOOOOOOOO             OOOOOOOOO",
"OOOOOOOOOOOOOOOOOOOOOOOOOOOOOOOO",
"OOOOOOOOOOOOOOOOOOOOOOOOOOOOOOOO",
"OOOOOOOOOOOOOOOOOOOOOOOOOOOOOOOO",
"OOOOOOOOOOOOOOOOOOOOOOOOOOOOOOOO",
"OOOOOOOOOOOOOOOOOOOOOOOOOOOOOOOO",
"OOOOOOOOOOOOOOOOOOOOOOOOOOOOOOOO"
};
