/* XPM */
static char *result[] = {
/* columns rows colors chars-per-pixel */
"32 32 9 1 ",
"  c black",
". c #795548",
"X c #FF3D00",
"o c #E65100",
"O c #FFC107",
"+ c #3F51B5",
"@ c #FFE0B2",
"# c white",
"$ c None",
/* pixels */
"$$$$$$$$$$$$$$$$$$$$$$$$$$$$$$$$",
"$$$$$$$$$$$         $$$$$$$$$$$$",
"$$$$$$$$$$ ooooooooo $$$$$$$$$$$",
"$$$$$$$$$$ ooooooooo $$$$$$$$$$$",
"$$$$$$$$$ ooooooooooo $$$$$$$$$$",
"$$$$$$$ $ ooooooooooo $ $$$$$$$$",
"$$$$$$ o ............. o $$$$$$$",
"$$$$$$$ ooooooooooooooo $$$$$$$$",
"$$$$$$$  ..@@@@@@@@@.. $$$$$$$$$",
"$$$$$$$$ .@@@@@@@@@@@. $$$$$$$$$",
"$$$$$$$$ .@@ @@@@@ @@. $$$$$$$$$",
"$$$$$$$$ @@@ @@@@@ @@@ $$$$$$$$$",
"$$$$$$$$ @@@@@@@@@@@@@ $$$$$$$$$",
"$$$$$$$$ @@@@@@@@@@@@@ $$$$$$$$$",
"$$$$$$$$$ @@@@@@@@@@@ $$$$$$$$$$",
"$$$$$$$$$ OO@@@@@@@OO  $$$$$$$$$",
"$$$$$$$$ O #OXXXXXO #O $$$$$$$$$",
"$$$$$$$$ O ##OOOOO ##O $$$$$$$$$",
"$$$$$$$$ O# #OO#OO## O $$$$$$$$$",
"$$$$$$$$ O###OOOOO#  O $$$$$$$$$",
"$$$$$$$$ O#  OO#OO###O $$$$$$$$$",
"$$$$$$$$ O###OOOOO # O $$$$$$$$$",
"$$$$$$$$ O ##OO#OO ##O $$$$$$$$$",
"$$$$$$$$ O## OOOOO## O $$$$$$$$$",
"$$$$$$$$ ............. $$$$$$$$$",
"$$$$$$$$$ +++++++++++ $$$$$$$$$$",
"$$$$$$$$$$ +++++++++ $$$$$$$$$$$",
"$$$$$$$$$$ +++++++++ $$$$$$$$$$$",
"$$$$$$$$$$$ +++++++ $$$$$$$$$$$$",
"$$$$$$$$$$$ +++++++ $$$$$$$$$$$$",
"$$$$$$$$$$$$       $$$$$$$$$$$$$",
"$$$$$$$$$$$$$$$$$$$$$$$$$$$$$$$$"
};
