/* XPM */
static char *result[] = {
/* columns rows colors chars-per-pixel */
"32 32 9 1 ",
"  c #1A237E",
". c #D50000",
"X c #FF5722",
"o c #4CAF50",
"O c #FFEB3B",
"+ c #9C27B0",
"@ c #2196F3",
"# c #FF80AB",
"$ c white",
/* pixels */
"......XXX$XXXOO$$$OOO$$$OOoo$$oo",
"......XXX$XXXOO$$$OOO$$$OOoo$$oo",
"......XXX$XXXOO$$$OOO$$$OOoo$$oo",
"...$$$XXX$XXXOOO$$OOOO$$OOoo$$oo",
"...$$$XXX$XXXOOO$$OOOO$$OOoo$$oo",
"...$$$XXX$XXXOOO$$OOOO$$OOoo$$oo",
"......XXX$XXXOOOO$OOOOO$OOoo$$oo",
"......XXX$XXXOO$O$OOO$O$OOoooooo",
"......XXX$XXXOO$OOOOO$OOOOoooooo",
"$$$...XXX$XXXOO$$OOOO$$OOO$$oo$$",
"$$$...XXX$XXXOO$$OOOO$$OOO$$oo$$",
"$$$...XXX$XXXOO$$OOOO$$OOO$$oo$$",
"$$$...XXX$XXXOO$$$OOO$$$OO$$oo$$",
"......XXXXXXXOO$$$OOO$$$OO$$oo$$",
"......XXXXXXXOO$$$OOO$$$OO$$oo$$",
"......XXXXXXXOO$$$OOO$$$OO$$oo$$",
"@@@@@@@@        ++++++$$$#######",
"@@@@@@@@        +++++++$$#######",
"@@@@@@@@        ++++++++$#######",
"@@@$$$$$$$    $$+++++++++###$$$$",
"@@@$$$$$$$    $$+++++++++###$$$$",
"@@@$$$$$$$    $$+++++++++###$$$$",
"@@@@@@@@$$    $$+++++++++###$$$$",
"@@@@@@@@$$    $$+++++++++#######",
"@@@@@@@@$$    $$+++++++++#######",
"@@@@@@@@$$    $$+++++++++#######",
"$$$$$@@@$$    $$+++++++++###$$$$",
"$$$$$@@@$$    $$+++++++++###$$$$",
"$$$$$@@@$$    $$+++++++++###$$$$",
"@@@@@@@@        ++++++++$#######",
"@@@@@@@@        +++++++$$#######",
"@@@@@@@@        ++++++$$$#######"
};
