/* XPM */
static char *result[] = {
/* columns rows colors chars-per-pixel */
"32 32 8 1 ",
"  c black",
". c #795548",
"X c #D50000",
"o c #E65100",
"O c #FFC107",
"+ c #FFE0B2",
"@ c white",
"# c None",
/* pixels */
"##########            ##########",
"######### oooooooooooo #########",
"######## oooooooooooooo ########",
"######## oooooooooooooo ########",
"###   ## oooooooooooooo #    ###",
"## ooo   oooooooooooooo  oooo ##",
"### oooo................oooo ###",
"####  oooooooooooooooooooo  ####",
"###### oooooooooooooooooo ######",
"####### ..++++++++++++.. #######",
"####### ..++++++++++++.. #######",
"####### ..+++ ++++ +++.. #######",
"####### ..+++ ++++ +++.. #######",
"####### .++++++++++++++. #######",
"######## ++++++++++++++ ########",
"######## ++++++++++++++ ########",
"######### +++ ++++ +++ #########",
"########  ++++    ++++  ########",
"######  OOOO++++++++OOOO  ######",
"##### OO  @@OXXXXXX @@@ OO #####",
"##### OO  @@@OOOOOO @@@@OO #####",
"##### OO    @OOOOOO   @@OO #####",
"##### OO@@@ @OO@@OO   @ OO #####",
"##### OO@@@@@OOOOOO@@@@ OO #####",
"##### OO@    OOOOOO@@   OO #####",
"##### OO@  @@OO@@OO@@  @OO #####",
"##### OO@@@@@OOOOOO @@@@OO #####",
"##### OO    @OOOOOO @@@ OO #####",
"##### OO@  @@OO@@OO   @@OO #####",
"##### OO@@@@ OOOOOO@@  @OO #####",
"##### OO @   OOOOOO @@@@OO #####",
"##### .................... #####"
};
